<?xml version="1.0" encoding="UTF-8"?>
<svg xmlns="http://www.w3.org/2000/svg" xmlns:xlink="http://www.w3.org/1999/xlink" width="44px" height="50px" viewBox="0 0 44 50" version="1.1">
<g id="surface1">
<path style=" stroke:none;fill-rule:nonzero;fill:rgb(0%,0%,0%);fill-opacity:1;" d="M 40.855469 3.125 L 3.132812 3.125 C 1.40625 3.125 0 4.539062 0 6.28125 L 0 43.71875 C 0 45.460938 1.40625 46.875 3.132812 46.875 L 40.855469 46.875 C 42.585938 46.875 44 45.460938 44 43.71875 L 44 6.28125 C 44 4.539062 42.585938 3.125 40.855469 3.125 Z M 13.296875 40.625 L 6.777344 40.625 L 6.777344 19.746094 L 13.308594 19.746094 L 13.308594 40.625 Z M 10.039062 16.894531 C 7.945312 16.894531 6.257812 15.203125 6.257812 13.132812 C 6.257812 11.066406 7.945312 9.375 10.039062 9.375 C 12.121094 9.375 13.820312 11.0625 13.820312 13.132812 C 13.820312 15.214844 12.128906 16.894531 10.039062 16.894531 Z M 37.742188 40.625 L 31.222656 40.625 L 31.222656 30.46875 C 31.222656 28.046875 31.171875 24.929688 27.832031 24.929688 C 24.4375 24.929688 23.914062 27.570312 23.914062 30.292969 L 23.914062 40.625 L 17.394531 40.625 L 17.394531 19.746094 L 23.648438 19.746094 L 23.648438 22.597656 L 23.738281 22.597656 C 24.613281 20.957031 26.742188 19.226562 29.917969 19.226562 C 36.515625 19.226562 37.742188 23.554688 37.742188 29.179688 Z M 37.742188 40.625 "/>
</g>
</svg>
